# xmcd CD database file
#
# Track frame offsets:
#	150
#	41110
#	47274
#	85205
#	114341
#	155950
#	207477
#	250122
#
# Disc length: 4426 seconds
#
# Revision: 0
# Processed by: cddbd v1.5.1PL0 Copyright (c) Steve Scherf et al.
# Submitted via: CDex 1.51
#
DISCID=67114808
DTITLE=Gov't Mule - Live...With A Little Help From Our Friends [CD1]
DYEAR=1999
DGENRE=Blues
TTITLE0=Thorazine Shuffle
TTITLE1=Dolphineus
TTITLE2=War Pigs
TTITLE3=30 Days In The Hole
TTITLE4=Mr. Big
TTITLE5=Look On Yonder Wall
TTITLE6=Soul Shine
TTITLE7=Mule
EXTD=YEAR: 1999
EXTT0=
EXTT1=
EXTT2=
EXTT3=
EXTT4=
EXTT5=
EXTT6=
EXTT7=
PLAYORDER=
